<mxfile host="app.diagrams.net" modified="2023-10-11T18:07:27.892Z" agent="Mozilla/5.0 (Windows NT 10.0; Win64; x64) AppleWebKit/537.36 (KHTML, like Gecko) Chrome/118.0.0.0 Safari/537.36" etag="MGTkwd5CRJDOFtTMQvtJ" version="22.0.4" type="github">
  <diagram id="R2lEEEUBdFMjLlhIrx00" name="Page-1">
    <mxGraphModel dx="1132" dy="573" grid="1" gridSize="10" guides="1" tooltips="1" connect="1" arrows="1" fold="1" page="1" pageScale="1" pageWidth="850" pageHeight="1100" math="0" shadow="0" extFonts="Permanent Marker^https://fonts.googleapis.com/css?family=Permanent+Marker">
      <root>
        <mxCell id="0" />
        <mxCell id="1" parent="0" />
        <mxCell id="Wro9SNu0bMOWk3mHg6cS-1" value="Alumno" style="swimlane;childLayout=stackLayout;horizontal=1;startSize=50;horizontalStack=0;rounded=1;fontSize=14;fontStyle=0;strokeWidth=2;resizeParent=0;resizeLast=1;shadow=0;dashed=0;align=center;arcSize=4;whiteSpace=wrap;html=1;" vertex="1" parent="1">
          <mxGeometry x="-720" y="170" width="160" height="150" as="geometry" />
        </mxCell>
        <mxCell id="Wro9SNu0bMOWk3mHg6cS-2" value="+dni&lt;br&gt;+nombre&lt;br&gt;+apellidos&lt;br&gt;+edad&lt;br&gt;+direccion&lt;br&gt;+telefono" style="align=left;strokeColor=none;fillColor=none;spacingLeft=4;fontSize=12;verticalAlign=top;resizable=0;rotatable=0;part=1;html=1;" vertex="1" parent="Wro9SNu0bMOWk3mHg6cS-1">
          <mxGeometry y="50" width="160" height="100" as="geometry" />
        </mxCell>
        <mxCell id="Wro9SNu0bMOWk3mHg6cS-4" value="Asistir" style="shape=rhombus;perimeter=rhombusPerimeter;whiteSpace=wrap;html=1;align=center;" vertex="1" parent="1">
          <mxGeometry x="-485" y="220" width="120" height="60" as="geometry" />
        </mxCell>
        <mxCell id="Wro9SNu0bMOWk3mHg6cS-5" value="nota" style="ellipse;whiteSpace=wrap;html=1;align=center;" vertex="1" parent="1">
          <mxGeometry x="-475" y="160" width="100" height="40" as="geometry" />
        </mxCell>
        <mxCell id="Wro9SNu0bMOWk3mHg6cS-6" value="Curso" style="swimlane;childLayout=stackLayout;horizontal=1;startSize=50;horizontalStack=0;rounded=1;fontSize=14;fontStyle=0;strokeWidth=2;resizeParent=0;resizeLast=1;shadow=0;dashed=0;align=center;arcSize=4;whiteSpace=wrap;html=1;" vertex="1" parent="1">
          <mxGeometry x="-320" y="150" width="160" height="150" as="geometry" />
        </mxCell>
        <mxCell id="Wro9SNu0bMOWk3mHg6cS-7" value="+id-curso&lt;br&gt;+nombre&lt;br&gt;+fecha_inicio&lt;br&gt;+fecha_fin" style="align=left;strokeColor=none;fillColor=none;spacingLeft=4;fontSize=12;verticalAlign=top;resizable=0;rotatable=0;part=1;html=1;" vertex="1" parent="Wro9SNu0bMOWk3mHg6cS-6">
          <mxGeometry y="50" width="160" height="100" as="geometry" />
        </mxCell>
        <mxCell id="Wro9SNu0bMOWk3mHg6cS-8" value="Impartir" style="shape=rhombus;perimeter=rhombusPerimeter;whiteSpace=wrap;html=1;align=center;" vertex="1" parent="1">
          <mxGeometry x="-110" y="240" width="120" height="60" as="geometry" />
        </mxCell>
        <mxCell id="Wro9SNu0bMOWk3mHg6cS-9" value="Pertenecer" style="shape=rhombus;perimeter=rhombusPerimeter;whiteSpace=wrap;html=1;align=center;" vertex="1" parent="1">
          <mxGeometry x="-110" y="160" width="120" height="60" as="geometry" />
        </mxCell>
        <mxCell id="Wro9SNu0bMOWk3mHg6cS-10" value="Profesor" style="swimlane;childLayout=stackLayout;horizontal=1;startSize=50;horizontalStack=0;rounded=1;fontSize=14;fontStyle=0;strokeWidth=2;resizeParent=0;resizeLast=1;shadow=0;dashed=0;align=center;arcSize=4;whiteSpace=wrap;html=1;" vertex="1" parent="1">
          <mxGeometry x="40" y="30" width="160" height="150" as="geometry" />
        </mxCell>
        <mxCell id="Wro9SNu0bMOWk3mHg6cS-11" value="+dni&lt;br&gt;+nombre&lt;br&gt;+apellidos&lt;br&gt;+telefono&lt;br&gt;+direccion" style="align=left;strokeColor=none;fillColor=none;spacingLeft=4;fontSize=12;verticalAlign=top;resizable=0;rotatable=0;part=1;html=1;" vertex="1" parent="Wro9SNu0bMOWk3mHg6cS-10">
          <mxGeometry y="50" width="160" height="100" as="geometry" />
        </mxCell>
        <mxCell id="Wro9SNu0bMOWk3mHg6cS-12" value="Tipo de cursos" style="swimlane;childLayout=stackLayout;horizontal=1;startSize=50;horizontalStack=0;rounded=1;fontSize=14;fontStyle=0;strokeWidth=2;resizeParent=0;resizeLast=1;shadow=0;dashed=0;align=center;arcSize=4;whiteSpace=wrap;html=1;" vertex="1" parent="1">
          <mxGeometry x="30" y="230" width="160" height="150" as="geometry" />
        </mxCell>
        <mxCell id="Wro9SNu0bMOWk3mHg6cS-13" value="+id_curso&lt;br&gt;+duracion&lt;br&gt;+titulo&lt;br&gt;+descripcion" style="align=left;strokeColor=none;fillColor=none;spacingLeft=4;fontSize=12;verticalAlign=top;resizable=0;rotatable=0;part=1;html=1;" vertex="1" parent="Wro9SNu0bMOWk3mHg6cS-12">
          <mxGeometry y="50" width="160" height="100" as="geometry" />
        </mxCell>
      </root>
    </mxGraphModel>
  </diagram>
</mxfile>
